<svg xmlns="http://www.w3.org/2000/svg" width="256" height="256" viewBox="0 0 100 100"><rect width="100" height="100" rx="20" fill="#171717"></rect><path d="M9.50 74.15L8.52 72.68L23.99 25.85L35.27 25.85L50.67 72.68L49.76 74.15L43.81 74.15L40.17 62.67L19.09 62.67L15.38 74.15L9.50 74.15ZM28.90 32.29L21.13 56.23L38.13 56.23L30.37 32.29L28.90 32.29ZM57.46 63.09L57.46 63.09L57.46 36.91Q57.46 25.85 68.45 25.85L68.45 25.85L87.91 25.85L91.48 28.65L91.48 32.29L68.52 32.29Q64.53 32.29 64.53 36.21L64.53 36.21L64.53 63.79Q64.53 67.71 68.52 67.71L68.52 67.71L91.48 67.71L91.48 71.35L87.91 74.15L68.45 74.15Q57.46 74.15 57.46 63.09Z" fill="#22c55e"></path></svg>